<?xml version="1.0" encoding="utf-8"?>
<!-- Generator: Adobe Illustrator 27.0.0, SVG Export Plug-In . SVG Version: 6.00 Build 0)  -->
<svg version="1.1" id="Layer_1" xmlns="http://www.w3.org/2000/svg" xmlns:xlink="http://www.w3.org/1999/xlink" x="0px" y="0px"
	 viewBox="0 0 140.2 140.2" style="enable-background:new 0 0 140.2 140.2;" xml:space="preserve">
<style type="text/css">
	.st0{fill:#F8F296;}
</style>
<g>
	<g>
		<path d="M97,140.2H43.3C19.4,140.2,0,120.9,0,97V43.3C0,19.4,19.4,0,43.3,0H97c23.9,0,43.3,19.4,43.3,43.3V97
			C140.2,120.9,120.9,140.2,97,140.2z"/>
	</g>
	<g>
		<path class="st0" d="M53.7,90.4L24.9,74.6v-6.8L53.7,52v8.2L33.3,71v0.3l20.4,10.9V90.4z"/>
		<path class="st0" d="M57,98.1v-0.6l18.1-55.4h8.2v0.6L65.1,98.1H57z"/>
		<path class="st0" d="M86.5,90.4v-8.2L107,71.3V71L86.5,60.2V52l28.8,15.8v6.8L86.5,90.4z"/>
	</g>
</g>
</svg>
