<?xml version="1.0" encoding="utf-8"?>
<!-- Generator: Adobe Illustrator 27.0.0, SVG Export Plug-In . SVG Version: 6.00 Build 0)  -->
<svg version="1.1" id="Layer_1" xmlns="http://www.w3.org/2000/svg" xmlns:xlink="http://www.w3.org/1999/xlink" x="0px" y="0px"
	 viewBox="0 0 715.3 140.2" style="enable-background:new 0 0 715.3 140.2;" xml:space="preserve">
<style type="text/css">
	.st0{fill:#F8F296;}
</style>
<g>
	<g>
		<g>
			<path d="M97,140.2H43.3C19.4,140.2,0,120.9,0,97V43.3C0,19.4,19.4,0,43.3,0H97c23.9,0,43.3,19.4,43.3,43.3V97
				C140.2,120.9,120.9,140.2,97,140.2z"/>
		</g>
		<g>
			<path class="st0" d="M53.7,90.4L24.9,74.6v-6.8L53.7,52v8.2L33.3,71v0.3l20.4,10.9V90.4z"/>
			<path class="st0" d="M57,98.1v-0.6l18.1-55.4h8.2v0.6L65.1,98.1H57z"/>
			<path class="st0" d="M86.5,90.4v-8.2L107,71.3V71L86.5,60.2V52l28.8,15.8v6.8L86.5,90.4z"/>
		</g>
	</g>
	<g>
		<path d="M209,107c-10.8,0-19.1-2.9-24.9-8.6c-5.7-5.7-8.6-14.6-8.6-26.6c0-11.7,2.7-20.5,8.2-26.5s13.9-9,25.2-9
			c3.6,0,7.2,0.4,10.9,1.3c3.7,0.9,7.2,2.1,10.7,3.7v14.3c-3.5-2.3-6.9-4-10.2-5s-6.3-1.5-9.2-1.5c-4,0-7.4,0.7-10.1,2.1
			s-4.8,3.8-6.3,7.1c-1.5,3.3-2.2,7.8-2.2,13.4c0,5.6,0.7,10.1,2.2,13.3c1.5,3.3,3.6,5.6,6.5,7c2.9,1.4,6.4,2.1,10.6,2.1
			c2.5,0,5.4-0.5,8.5-1.4c3.2-0.9,6.5-2.6,10.1-4.9v14.3c-1.9,1-4.1,1.8-6.5,2.5c-2.4,0.7-4.9,1.3-7.5,1.7
			C214,106.8,211.4,107,209,107z"/>
		<path d="M265.7,107.2c-8.7,0-15.2-2.3-19.6-7c-4.4-4.6-6.6-11.5-6.6-20.5c0-9.7,2.2-16.7,6.7-20.9c4.4-4.2,10.9-6.4,19.5-6.4
			c5.8,0,10.6,1,14.5,2.9c3.9,1.9,6.8,4.9,8.8,8.9c2,4,3,9.2,3,15.5c0,9-2.3,15.9-6.8,20.5C280.7,104.9,274.2,107.2,265.7,107.2z
			 M265.7,95.1c2.5,0,4.6-0.6,6.3-1.8c1.7-1.2,2.9-2.9,3.8-5.2c0.8-2.3,1.3-5.1,1.3-8.4c0-3.8-0.4-6.8-1.3-9
			c-0.8-2.2-2.1-3.8-3.8-4.8c-1.7-1-3.8-1.5-6.2-1.5c-2.6,0-4.7,0.5-6.3,1.5c-1.6,1-2.8,2.6-3.6,4.8c-0.8,2.2-1.2,5.2-1.2,8.9
			c0,5.2,0.9,9,2.7,11.5C259.1,93.8,261.9,95.1,265.7,95.1z"/>
		<path d="M327.2,107.2c-4,0-7.7-0.4-11-1.3s-6.3-2.4-8.7-4.4c-2.4-2.1-4.4-4.9-5.7-8.5c-1.4-3.6-2.1-8.1-2.1-13.4
			c0-8.3,2-14.9,6.2-19.7c4.1-4.8,10.3-7.2,18.5-7.2c1.1,0,2.5,0.1,4.3,0.3c1.8,0.2,3.6,0.6,5.5,1.3c1.9,0.7,3.6,1.8,5.1,3.5
			l-3.1,4.7V33.1h15.1v59.2c0,2.5-0.7,4.7-2,6.6c-1.4,1.9-3.2,3.4-5.4,4.6c-2.3,1.2-4.8,2.2-7.7,2.8S330.1,107.2,327.2,107.2z
			 M327.8,94.5c2.4,0,4.4-0.3,5.9-1c1.5-0.6,2.3-1.6,2.3-2.9V66.9c-1.2-0.7-2.5-1.2-3.9-1.6c-1.4-0.4-2.7-0.6-4-0.6
			c-2.8,0-5.3,0.5-7.2,1.4c-2,1-3.4,2.5-4.4,4.8c-1,2.2-1.5,5.3-1.5,9.1c0,3,0.4,5.5,1.2,7.7s2.2,3.8,4,5
			C322.1,93.9,324.6,94.5,327.8,94.5z"/>
		<path d="M387.8,107.2c-5.2,0-9.7-1.1-13.7-3.2c-4-2.1-7.1-5.2-9.3-9.2c-2.2-4-3.3-8.7-3.3-14.2c0-9,2.2-15.9,6.7-20.8
			c4.4-4.9,10.8-7.4,19.1-7.4c5.7,0,10.3,1.2,13.8,3.7c3.5,2.4,6.1,6,7.7,10.7c1.6,4.7,2.4,10.4,2.3,17.1h-39.2l-1.6-9.7h28.3
			l-2.2,4.8c-0.1-5.5-0.8-9.4-2.3-11.6c-1.5-2.2-3.9-3.4-7.3-3.4c-1.9,0-3.6,0.5-5.1,1.4c-1.5,1-2.7,2.5-3.6,4.7
			c-0.8,2.2-1.3,5.2-1.3,9.1c0,4.9,1.2,8.6,3.5,11.3c2.3,2.6,6.1,4,11.2,4c1.9,0,3.8-0.2,5.6-0.7c1.9-0.4,3.6-1,5.2-1.6
			c1.6-0.6,3-1.2,4.2-1.6v13c-2.4,1-5.2,1.8-8.2,2.5C395.3,106.9,391.8,107.2,387.8,107.2z"/>
		<path d="M473,107.1c-3.5,0-6.6-0.2-9.4-0.5c-2.8-0.3-5.4-0.8-7.7-1.5c-2.4-0.7-4.7-1.6-6.9-2.6V86.8c3.1,2.5,6.6,4.4,10.6,5.7
			c3.9,1.3,7.7,1.9,11.2,1.9c3.1,0,5.5-0.6,7.2-1.8c1.7-1.2,2.5-3,2.5-5.4c0-1.8-0.8-3.3-2.3-4.4c-1.5-1.1-3.5-2.1-6.1-2.9
			c-2.5-0.8-5.3-1.8-8.4-2.9c-2-0.6-3.9-1.4-5.8-2.3c-1.9-0.9-3.6-2.2-5.1-3.6c-1.5-1.5-2.7-3.2-3.6-5.3c-0.9-2.1-1.3-4.7-1.3-7.7
			c0-2.8,0.5-5.5,1.5-8c1-2.6,2.6-4.9,4.7-6.9s4.9-3.6,8.2-4.8c3.3-1.2,7.2-1.8,11.7-1.8c2.8,0,5.2,0.2,7.4,0.5
			c2.1,0.3,4.2,0.8,6.2,1.5c2,0.6,4,1.5,6,2.5v15.9c-1.6-1.3-3.3-2.5-5.2-3.6c-1.9-1.1-4-2-6.1-2.8c-2.1-0.7-4.3-1.2-6.6-1.2
			c-2-0.1-3.9,0.1-5.6,0.6c-1.7,0.5-3,1.2-4,2.3c-1,1.1-1.4,2.4-1.4,4c0,1.9,0.6,3.4,1.7,4.5c1.2,1.1,2.7,2,4.8,2.7
			c2,0.7,4.3,1.5,6.8,2.3c2.8,0.8,5.3,1.7,7.7,2.7c2.3,1,4.4,2.2,6.2,3.7c1.8,1.5,3.1,3.3,4.1,5.5c0.9,2.2,1.4,4.8,1.4,7.8
			c0,4.1-1,7.8-2.8,11.1c-1.9,3.4-4.6,6-8.2,7.9C482.6,106.1,478.2,107.1,473,107.1z"/>
		<path d="M508.4,105.7V33.9h15.3v30.5l-6.4-3.5c2.7-2.4,5.9-4.3,9.6-5.8c3.7-1.5,7.5-2.3,11.3-2.3c3.7,0,7,0.6,9.9,1.8
			c2.8,1.2,5.1,3.2,6.7,5.9c1.6,2.7,2.4,6.5,2.4,11.3v33.8H542V75.1c0-3.4-0.8-5.8-2.5-7.4c-1.7-1.5-4.1-2.3-7.3-2.3
			c-1.6,0-3.2,0.2-4.8,0.7c-1.6,0.4-2.8,1-3.7,1.7l-0.2,37.9H508.4z"/>
		<path d="M590.4,107.2c-3.1,0-6.1-0.3-8.8-0.9c-2.7-0.6-5.2-1.5-7.2-2.8c-2.1-1.3-3.7-3.1-4.8-5.4c-1.2-2.3-1.7-5.1-1.7-8.5
			c0-3.2,0.7-6,2-8.3c1.3-2.4,3.3-4.2,6.1-5.5c2.7-1.3,6.1-1.9,10.3-1.9c2.3,0,4.5,0.2,6.7,0.7c2.2,0.5,4.1,1.1,5.8,1.9
			c1.7,0.8,3.1,1.7,4.1,2.6l0.6,7.3c-1.4-0.8-3-1.5-4.9-1.9c-1.9-0.5-3.9-0.7-6.1-0.7c-3.3,0-5.7,0.5-7.3,1.5
			c-1.5,1-2.3,2.5-2.3,4.6c0,1.3,0.4,2.4,1.1,3.5c0.7,1,1.7,1.8,3,2.3c1.3,0.5,2.6,0.8,3.9,0.8c3.5,0,5.9-0.2,7.3-0.7
			c1.4-0.5,2.1-1.4,2.1-2.8V74c0-3.1-1-5.4-3-6.8c-2-1.4-4.8-2.1-8.5-2.1c-3,0-6,0.5-9,1.6c-3,1.1-5.5,2.3-7.4,3.8V57.2
			c1.8-1.1,4.5-2.1,8.2-3.1c3.7-0.9,7.8-1.4,12.5-1.4c1.6,0,3.4,0.1,5.4,0.4c2,0.3,3.9,0.8,5.9,1.5c2,0.7,3.8,1.7,5.4,3.1
			c1.7,1.4,3,3.1,4,5.2c1,2.1,1.5,4.7,1.5,7.8L615.2,95c0,2.9-1,5.3-2.9,7.1c-2,1.8-4.8,3.1-8.5,3.9
			C600.1,106.8,595.6,107.2,590.4,107.2z"/>
		<path d="M628.7,105.7V59.6c0.9-0.8,2.6-1.7,5.1-2.8c2.4-1.1,5.2-2,8.4-2.8c3.2-0.8,6.3-1.3,9.5-1.3c3.2,0,5.7,0.2,7.5,0.7
			c1.8,0.5,3.2,1.1,4.2,1.8v11.1c-1.2-0.3-2.6-0.5-4.4-0.6c-1.8-0.1-3.6-0.2-5.5-0.3c-1.9,0-3.7,0-5.4,0.1c-1.7,0.1-3.1,0.2-4.3,0.4
			v39.8H628.7z"/>
		<path d="M692,107.2c-5.2,0-9.7-1.1-13.7-3.2c-4-2.1-7.1-5.2-9.3-9.2c-2.2-4-3.3-8.7-3.3-14.2c0-9,2.2-15.9,6.7-20.8
			c4.4-4.9,10.8-7.4,19.1-7.4c5.7,0,10.3,1.2,13.8,3.7c3.5,2.4,6.1,6,7.7,10.7c1.6,4.7,2.4,10.4,2.3,17.1h-39.2l-1.6-9.7h28.3
			l-2.2,4.8c-0.1-5.5-0.8-9.4-2.3-11.6c-1.5-2.2-3.9-3.4-7.3-3.4c-1.9,0-3.6,0.5-5.1,1.4c-1.5,1-2.7,2.5-3.6,4.7
			c-0.8,2.2-1.3,5.2-1.3,9.1c0,4.9,1.2,8.6,3.5,11.3c2.3,2.6,6.1,4,11.2,4c1.9,0,3.8-0.2,5.6-0.7c1.9-0.4,3.6-1,5.2-1.6
			c1.6-0.6,3-1.2,4.2-1.6v13c-2.4,1-5.2,1.8-8.2,2.5C699.5,106.9,696,107.2,692,107.2z"/>
	</g>
</g>
</svg>
